<svg width="460" height="454" viewBox="0 0 460 454" fill="none" xmlns="http://www.w3.org/2000/svg">
<path d="M66.4492 205.626C83.1226 182.321 108.11 171.758 108.11 171.758C108.926 171.418 105.45 139.49 105.379 137.225C104.325 99.9269 110.511 61.1186 138.549 34.1858C173.598 0.540108 237.191 -6.4312 277.397 21.9151C276.891 21.5402 290.625 10.7134 291.786 10.0193C299.29 5.49043 307.758 2.79804 316.499 2.16134C351.68 -0.371836 383.943 27.2702 397.141 60.7082C410.338 94.1462 407.309 170.334 383.097 192.307" stroke="#CCDDE2" stroke-width="2.61073"/>
<path d="M51.4173 246.056C52.2839 236.877 54.6438 227.901 58.4038 219.483C58.7618 218.682 59.1367 217.899 59.5285 217.132" stroke="#CCDDE2" stroke-width="2.61073"/>
<path d="M94.8967 343.046C90.8436 339.363 87.0895 335.614 83.6494 331.844" stroke="#CCDDE2" stroke-width="2.61073"/>
<path d="M432.641 233.506C432.671 236.04 432.641 238.624 432.519 241.212C431.8 257.227 428.37 273.779 419.797 287.266C418.237 289.754 416.496 292.125 414.589 294.359C396.35 291.952 393.63 273.348 372.538 262.831C347.272 250.2 305.901 254.724 305.901 254.724L326.283 235.923C325.193 179.302 283.624 182.777 283.624 182.777L281.511 187.95C283.115 183.265 284.738 178.896 286.38 174.843L286.471 174.63C305.723 126.814 325.669 120.886 341.188 113.981C344.895 113.1 348.691 112.648 352.501 112.633C392.176 112.42 415.461 152.825 425.644 185.351C428.177 193.457 432.073 210.794 432.595 230.289C432.605 231.333 432.641 232.422 432.641 233.506Z" fill="#2E2E2E"/>
<path d="M454.933 445.726C451.852 449.967 446.771 452.277 441.532 452.277H381.344C376.667 452.344 372.179 450.432 368.987 447.013C368.957 447.013 368.987 447.013 368.987 447.013C368.773 446.797 368.573 446.566 368.389 446.324C366.503 443.988 365.324 441.161 364.99 438.177C364.686 435.436 366.722 432.999 369.478 433.111C371.638 433.195 373.404 434.861 373.613 437.012C373.613 437.23 373.658 437.443 373.689 437.655C373.912 438.892 374.455 440.048 375.264 441.009C376.715 442.724 378.872 443.678 381.116 443.598H441.791C443.989 443.636 446.093 442.71 447.551 441.065C449.203 439.153 449.727 436.512 448.929 434.114L421.829 353.534C421.608 352.915 421.346 352.313 421.044 351.73C417.796 344.868 410.848 340.526 403.256 340.614C391.846 340.751 377.362 340.782 375.999 340.782C345.636 340.67 331.82 340.67 324.221 340.873C324.742 339.005 325.685 337.282 326.977 335.837C326.977 335.837 327.007 335.806 327.007 335.791C328.86 333.816 331.397 332.622 334.1 332.452C345.357 331.53 356.503 329.848 367.33 326.91C386.435 321.732 404.659 312.851 417.32 298.569C423.483 291.655 428.141 283.536 430.999 274.726C433.217 267.731 434.615 260.502 435.164 253.184C435.36 250.874 435.481 248.547 435.529 246.203V246.096C435.529 245.559 435.559 245.007 435.559 244.47C435.628 241.132 435.475 237.792 435.103 234.474C438.411 234.5 441.58 235.812 443.939 238.132C444.146 238.678 444.298 239.243 444.395 239.819C444.486 240.365 444.532 240.917 444.531 241.471V307.004C444.542 316.045 440.931 324.714 434.505 331.074C429.236 336.293 427.736 344.211 430.234 351.178L457.167 431.317C458.819 436.197 457.985 441.576 454.933 445.726Z" fill="#3FBDF1"/>
<path d="M83.6545 443.705V259.983H94.8968V443.781L83.6545 443.705Z" fill="#2E2E2E"/>
<path d="M305.906 254.699C313.956 253.843 323.268 252.83 332.21 253.032" stroke="black" stroke-width="2.61073"/>
<path d="M262.051 262.815C247.794 266.413 233.923 271.606 222.088 280.239C202.228 294.708 193.149 321.702 201.265 345.088C201.265 345.118 233.183 437.189 233.183 437.189H224.783C221.126 437.188 217.621 438.647 215.045 441.242C212.548 443.725 211.317 447.864 211.317 451.664H286.922L258.191 357.683C256.737 352.985 257.608 347.875 260.535 343.923C263.463 339.971 268.097 337.65 273.015 337.671C289.384 338.132 304.588 338.76 321.145 338.041" stroke="black" stroke-width="2.61073"/>
<path d="M432.757 241.978V241.876C432.022 222.117 431.029 202.622 425.624 185.336C415.44 152.81 392.155 112.405 352.481 112.618C348.67 112.633 344.875 113.085 341.167 113.966C315.015 120.182 296.852 146.978 286.451 174.615L286.36 174.828C285.367 177.479 284.448 180.124 283.603 182.762C283.031 184.537 282.325 186.266 281.491 187.935C274.969 201.076 261.054 208.87 246.442 207.567C198.413 203.2 135.113 200.707 115.177 234.454" stroke="black" stroke-width="2.61073"/>
<path d="M354.163 205.226C347.171 213.667 339.81 221.819 332.2 229.702C316.621 245.853 303.18 263.008 279.003 264.153C259.716 265.08 241.355 257.678 223.116 252.546C203.606 247.059 193.731 242.672 175.548 237.129C170.311 235.539 164.879 234.686 159.407 234.596L141.102 234.738" stroke="black" stroke-width="2.61073"/>
<path d="M282.767 438.375C284.51 437.593 286.4 437.192 288.31 437.2H296.73C296.73 437.2 279.13 402.986 265.055 380.213" stroke="black" stroke-width="2.61073"/>
<path d="M294.329 338.117L353.2 452.277H286.608H274.53" stroke="black" stroke-width="2.61073"/>
<path fill-rule="evenodd" clip-rule="evenodd" d="M454.933 445.726C451.852 449.967 446.771 452.277 441.532 452.277H381.344C376.353 452.277 371.485 450.21 368.374 446.309C366.488 443.972 365.308 441.146 364.974 438.162C364.67 435.421 366.707 432.984 369.463 433.096C371.623 433.179 373.388 434.846 373.597 436.997C373.72 438.468 374.298 439.865 375.249 440.994C376.72 442.681 378.863 443.629 381.1 443.583H441.79C443.988 443.621 446.093 442.695 447.551 441.05C449.203 439.138 449.727 436.497 448.929 434.099L421.829 353.534C419.016 345.715 411.565 340.531 403.256 340.614C391.846 340.751 377.361 340.782 375.999 340.782C342.191 340.675 328.881 340.675 321.829 340.934C321.607 340.932 321.395 340.843 321.239 340.685C321.084 340.527 320.997 340.314 320.998 340.093C320.988 336.965 322.136 333.944 324.22 331.611C324.237 331.599 324.248 331.581 324.251 331.561C326.107 329.59 328.642 328.398 331.344 328.227C342.601 327.305 353.747 325.623 364.574 322.685C383.679 317.507 401.903 308.625 414.564 294.343C420.727 287.43 425.385 279.311 428.243 270.501C430.455 263.509 431.848 256.283 432.392 248.969C432.592 246.652 432.713 244.325 432.757 241.988V241.876C432.757 241.344 432.787 240.792 432.787 240.255C432.856 236.916 432.704 233.577 432.331 230.259C437.844 230.229 443.401 234.236 444.364 239.829C444.456 240.375 444.501 240.928 444.501 241.481V307.004C444.512 316.045 440.901 324.714 434.475 331.074C429.206 336.293 427.706 344.212 430.204 351.178L457.136 431.317C458.797 436.192 457.974 441.571 454.933 445.726V445.726Z" stroke="black" stroke-width="2.61073"/>
<rect x="2" y="246.061" width="170.721" height="13.9173" rx="6.95864" stroke="black" stroke-width="2.61073"/>
<rect x="54.0569" y="444.576" width="71.1976" height="7.79206" rx="3.89603" stroke="black" stroke-width="2.61073"/>
<path fill-rule="evenodd" clip-rule="evenodd" d="M74.8846 239.814V240.513C74.986 245.321 79.5102 246.056 83.4113 246.086L158.829 246.036C162.132 246.036 164.858 243.502 164.863 240.392V240.26C164.802 237.22 162.148 234.743 158.885 234.738C158.885 234.738 116.692 234.586 84.0142 234.489C83.4265 236.202 81.937 237.529 80.0777 238.613C78.4781 239.452 76.6899 239.865 74.8846 239.814Z" stroke="black" stroke-width="2.61073"/>
<path fill-rule="evenodd" clip-rule="evenodd" d="M33.4114 172.077C33.4272 172.877 33.6563 173.659 34.0751 174.342L69.033 233.056C69.9477 234.483 71.4169 235.464 73.0861 235.761C74.4829 236.036 75.9304 235.879 77.2354 235.31C79.3785 234.358 80.6147 232.438 80.5742 230.492C80.5665 230.247 80.5411 230.004 80.4982 229.763C80.3906 229.226 80.1919 228.712 79.9105 228.243L44.9526 169.529C43.4327 166.96 39.714 165.952 36.7248 167.274C34.5919 168.206 33.3557 170.126 33.4114 172.077V172.077Z" stroke="black" stroke-width="2.61073"/>
<path d="M127.94 234.738C127.94 234.738 132.15 230.73 141.832 224.367" stroke="black" stroke-width="2.61073"/>
<path d="M162.269 168.875L146.923 185.893C144.704 188.356 140.944 188.647 138.371 186.557C136.987 185.433 136.15 183.77 136.073 181.989C135.995 180.208 136.685 178.479 137.966 177.24L140.773 174.524C140.879 174.372 141.001 174.235 141.122 174.093L143.149 171.859L160.577 152.921C164.875 148.198 171.275 145.977 177.575 147.024L177.833 147.069" stroke="black" stroke-width="2.61073"/>
<path d="M183.882 173.48H168.531C164.894 173.48 161.945 170.532 161.945 166.894C161.945 163.257 164.894 160.308 168.531 160.308H190.317" stroke="black" stroke-width="2.61073"/>
<path d="M172.113 173.48C171.9 176.171 170.872 178.162 169.357 179.56C165.456 183.106 158.302 182.716 153.327 180.279" stroke="black" stroke-width="2.61073"/>
<path d="M143.174 171.849C138.761 166.534 139.668 159.31 143.098 153.722C157.259 130.599 184.252 144.84 202 154.806C212.564 160.766 222.663 167.517 232.21 175C240.661 181.587 248.483 189.47 258.636 193.432C264.716 195.808 271.895 196.375 277.944 193.634" stroke="black" stroke-width="2.61073"/>
<path d="M169.357 179.519C180.065 187.424 190.291 195.962 199.978 205.089" stroke="black" stroke-width="2.61073"/>
<path d="M299.654 55.2212C302.217 57.5619 306.154 57.6886 309.412 57.3744C313.576 56.9945 317.7 55.9863 321.779 55.1351L324.256 55.0085H324.291C325.251 55.0178 326.167 55.4079 326.839 56.093C327.511 56.778 327.883 57.7019 327.873 58.6613C327.93 64.0081 327.396 69.3449 326.283 74.5747L331.03 77.1434C331.643 75.431 330.954 72.9636 332.408 72.7762C333.34 71.0384 334.728 69.9086 336.907 71.2005C341.173 73.7337 342.855 81.1762 338.746 84.5859L341.38 89.5104C343.274 93.0702 347.421 94.7936 351.28 93.6242L348.59 87.6763C354.902 88.796 359.32 80.9178 357.395 76.1098C356.083 72.8066 356.149 70.2379 357.902 67.0259C358.018 66.808 356.828 66.5192 356.929 66.2963C356.99 63.9404 356.336 61.4174 355.201 60.2167C353.205 58.0685 349.188 57.6835 350.008 54.4208C350.373 53.0007 350.508 51.5315 350.409 50.0688C349.975 46.1991 347.889 42.7059 344.689 40.4883C341.365 38.3047 337.646 40.2856 334.095 40.2299C329.783 40.1843 326.693 36.5264 322.174 36.4706C319.924 36.4352 318.121 37.3117 316.195 38.4009C314.584 39.3281 312.999 40.2957 311.458 41.3445C309.918 42.3932 308.55 43.3001 306.711 43.3052C304.315 43.3356 301.999 41.8157 299.588 42.5249C298.369 42.853 297.297 43.5854 296.548 44.6022C295.783 48.3411 297.166 52.9667 299.654 55.2212Z" fill="#3FBDF1"/>
<path d="M331.05 76.586C331.359 75.2661 331.815 73.9849 332.408 72.7659C333.34 71.0282 334.733 69.8984 336.907 71.1903C341.173 73.7235 342.855 81.1659 338.746 84.5756L341.38 89.5001C343.274 93.06 347.421 94.7834 351.28 93.614" stroke="black" stroke-width="2.61073" stroke-linecap="round" stroke-linejoin="round"/>
<path d="M348.59 87.6661L351.27 93.6242C351.944 95.0478 353.874 99.4252 355.895 103.975C357.334 107.232 358.834 110.586 359.948 113.054" stroke="black" stroke-width="2.61073" stroke-linecap="round" stroke-linejoin="round"/>
<path d="M305.176 66.2709C305.176 66.2709 313.074 64.3052 316.525 70.2936" stroke="black" stroke-width="2.61073"/>
<path d="M307.501 84.1501C305.374 84.7328 302.511 85.2546 300.87 83.4003L304.446 75.8717C305.315 74.0254 305.529 71.9385 305.054 69.9542C304.274 66.6155 302.324 61.544 304.416 57.1414" stroke="black" stroke-width="2.61073"/>
<ellipse cx="310.699" cy="72.784" rx="2.10254" ry="2.47238" transform="rotate(-58.92 310.699 72.784)" fill="black"/>
<path d="M324.342 121.459L322.468 100.656" stroke="black" stroke-width="2.61073"/>
<path d="M331.03 77.1333C331.03 76.951 331.03 76.7635 331.03 76.5811C331.04 76.3853 331.04 76.1892 331.03 75.9934" stroke="black" stroke-width="2.61073" stroke-linecap="round" stroke-linejoin="round"/>
<path d="M331.035 77.1384L329.403 76.2619L326.282 74.5647" stroke="black" stroke-width="2.61073" stroke-linecap="round" stroke-linejoin="round"/>
<path d="M317.974 84.6873C317.974 84.6873 317.817 89.9563 311.793 92.1247" stroke="black" stroke-width="2.61073"/>
<path d="M348.59 87.6662C354.902 88.7859 359.32 80.9077 357.395 76.0997C356.083 72.7965 356.149 70.2278 357.902 67.0158C358.018 66.7979 358.114 66.5851 358.216 66.3723C359.518 63.4997 359.057 60.6524 357.01 58.2104C355.07 55.9002 352.146 55.0896 352.987 51.7204C353.365 50.2578 353.505 48.7439 353.403 47.2367C352.961 43.2567 350.817 39.663 347.526 37.3826C344.111 35.118 340.266 37.1698 336.587 37.1141C332.159 37.0482 328.963 33.2789 324.317 33.2231C321.991 33.2231 320.117 34.0895 318.141 35.2142C316.479 36.1718 314.832 37.18 313.262 38.254C311.691 39.3281 310.222 40.2806 308.358 40.2806C305.885 40.2806 303.499 38.7607 301.027 39.47C298.554 40.1793 297.085 42.2261 296.599 44.5971C295.808 48.3158 297.191 52.9617 299.679 55.2365C302.243 57.5771 306.179 57.7038 309.437 57.3897C313.601 57.0097 317.725 56.0015 321.804 55.1503L324.281 55.0237H324.317C325.276 55.033 326.193 55.4232 326.864 56.1082C327.536 56.7933 327.908 57.7171 327.899 58.6765C327.955 64.0234 327.422 69.3601 326.308 74.59" stroke="black" stroke-width="2.61073"/>
<path d="M331.987 93.4318C331.987 93.4318 322.574 105.936 314.209 103.134C305.845 100.332 305.419 84.8545 305.419 84.8545" stroke="black" stroke-width="2.61073" stroke-linecap="round" stroke-linejoin="round"/>
<path d="M83.6545 443.705V259.983H94.8968V443.781" stroke="black" stroke-width="2.61073"/>
<circle cx="94" cy="134.93" r="18.1477" fill="#3FBDF1"/>
<path d="M86.902 139.612C86.3713 139.249 85.8997 138.806 85.5037 138.299C84.0539 136.504 84.1736 133.909 85.7823 132.255C86.8104 131.197 88.2748 130.681 89.7392 130.862C89.4104 128.797 90.4889 126.765 92.3829 125.88C94.2768 124.994 96.528 125.471 97.9011 127.047C99.3146 128.648 99.9783 131.029 100.227 133.127C100.355 134.222 100.372 135.327 100.277 136.425C100.232 136.977 100.034 140.164 99.5173 140.367C96.1025 141.674 90.2813 141.957 86.902 139.612Z" fill="white"/>
<circle cx="222.042" cy="139.07" r="9.72741" fill="#3FBDF1"/>
<path d="M221.373 134.56C221.669 134.382 221.993 134.253 222.331 134.181C223.533 133.892 224.763 134.543 225.199 135.7C225.477 136.441 225.392 137.27 224.971 137.94C226.022 138.274 226.736 139.251 226.736 140.354C226.736 141.457 226.022 142.434 224.971 142.768C223.81 143.022 222.601 142.934 221.49 142.515C220.93 142.326 220.39 142.081 219.879 141.785C219.62 141.638 218.116 140.817 218.141 140.519C218.288 138.553 219.479 135.665 221.373 134.56Z" fill="white"/>
<path d="M146.619 127.974C147.709 128.884 148.926 129.63 150.232 130.188C155.121 132.229 160.724 131.546 164.98 128.39C166.601 127.154 168.02 125.446 169.697 124.205C170.867 123.288 172.271 122.719 173.75 122.563C174.241 122.577 174.729 122.475 175.173 122.264C176.298 121.565 174.971 120.405 174.854 119.584C174.698 118.272 175.028 116.947 175.781 115.861C179.749 109.944 178.998 102.05 173.985 96.9882C168.972 91.9261 161.086 91.0977 155.131 95.0075C152.278 96.8769 150.161 99.6482 148.013 102.298C146.118 104.634 144.137 106.934 142.749 109.604C139.486 115.881 141.391 123.612 146.619 127.974Z" fill="#3FBDF1"/>
<circle cx="165.968" cy="104.036" r="3.24754" fill="white"/>
<circle cx="159.685" cy="111.716" r="3.24754" fill="white"/>
<circle cx="153.793" cy="118.926" r="3.24754" fill="white"/>
<path opacity="0.46" d="M247.718 88.5124C247.205 91.0884 245.555 93.2947 243.23 94.516L216.145 108.904C214.082 110.005 211.665 110.24 209.429 109.555C207.193 108.871 205.322 107.324 204.229 105.257L182.641 64.6093C180.363 60.3168 181.994 54.9907 186.284 52.7084L213.389 38.325C217.467 36.1566 223.096 37.8184 225.285 41.9677L246.877 82.5999C247.849 84.4089 248.147 86.5042 247.718 88.5124Z" fill="#3FBDF1"/>
<path d="M239.678 85.432L213.267 75.3652C212.572 75.0956 212.175 74.3618 212.33 73.6325L218.455 45.4585C218.597 44.845 219.103 44.3829 219.727 44.2963C220.351 44.2098 220.963 44.5168 221.267 45.0683L241.553 83.2991C241.846 83.8566 241.766 84.5375 241.35 85.0108C240.934 85.4841 240.269 85.6517 239.678 85.432Z" fill="white"/>
<path opacity="0.46" d="M279.13 116.798C280.252 117.603 280.949 118.874 281.025 120.253L282.038 136.359C282.116 137.587 281.701 138.795 280.887 139.717C280.072 140.639 278.924 141.199 277.696 141.273L253.524 142.763C250.974 142.916 248.78 140.976 248.62 138.426L247.632 122.31C247.542 119.783 249.445 117.628 251.964 117.406L276.131 115.886C277.207 115.826 278.269 116.149 279.13 116.798Z" fill="#3FBDF1"/>
<path d="M275.918 119.98L265.339 130.452C265.062 130.714 264.637 130.744 264.326 130.523L252.167 121.454C251.901 121.253 251.788 120.908 251.884 120.589C251.981 120.271 252.265 120.045 252.597 120.025L275.335 118.622C275.661 118.613 275.958 118.804 276.087 119.103C276.215 119.402 276.148 119.749 275.918 119.98Z" fill="white"/>
<circle cx="114.726" cy="189.5" r="1.84415" fill="white"/>
<path d="M146.873 452.277H357.77" stroke="black" stroke-width="1.62847"/>
</svg>
