<svg width="885" height="668" viewBox="0 0 885 668" fill="none" xmlns="http://www.w3.org/2000/svg">
<path d="M535.435 98.2895C534.114 100.497 531.35 101.431 528.973 101.908C525.935 102.53 522.793 102.695 519.717 102.969L517.929 103.408C517.246 103.619 516.675 104.093 516.342 104.726C516.009 105.359 515.942 106.098 516.156 106.781C517.262 110.587 518.784 114.261 520.694 117.734L517.863 120.565C517.061 119.48 517.024 117.579 515.948 117.763C514.915 116.729 513.689 116.225 512.42 117.607C509.938 120.319 510.339 125.956 513.986 127.513L513.17 131.575C512.589 134.503 510.022 136.614 507.037 136.618L507.665 131.811C503.419 133.957 498.603 129.315 498.938 125.489C499.155 122.867 498.56 121.055 496.621 119.154C496.494 119.027 497.272 118.555 497.154 118.428C496.607 116.772 496.532 114.838 497.074 113.743C498.018 111.79 500.796 110.649 499.518 108.517C498.957 107.587 498.547 106.575 498.305 105.516C497.786 102.678 498.521 99.7533 500.32 97.497C502.207 95.2327 505.273 95.8413 507.778 95.0393C510.83 94.0959 512.24 90.8268 515.434 89.8173C517.024 89.3125 518.495 89.5437 520.085 89.9069C521.43 90.2182 522.76 90.5673 524.081 90.9825C525.402 91.3976 526.562 91.7419 527.855 91.3551C529.562 90.8834 530.878 89.2889 532.742 89.2748C533.671 89.2533 534.582 89.544 535.327 90.1003C536.704 92.5769 536.714 96.1715 535.435 98.2895Z" fill="#3FBDF1"/>
<path d="M477.054 162.162C477.054 162.162 425.697 105.516 501.329 77.2504C505.715 75.642 510.286 74.5928 514.934 74.1275C527.005 72.8444 553.691 68.2828 556.767 52.8761" stroke="#CCDDE2" stroke-width="1.92543"/>
<path d="M692.644 82.864V82.8499" stroke="#CCDDE2" stroke-width="1.92543"/>
<path d="M557.89 184.857V184.842" stroke="black" stroke-width="1.92543"/>
<path d="M517.736 120.187C517.233 119.318 516.635 118.508 515.953 117.772C514.92 116.739 513.693 116.234 512.424 117.616C509.943 120.329 510.344 125.966 513.99 127.523L513.174 131.584C512.594 134.512 510.027 136.623 507.042 136.627" stroke="black" stroke-width="1.92543" stroke-linecap="round" stroke-linejoin="round"/>
<path d="M504.759 154.6C504.966 153.024 505.48 148.887 505.976 144.944C506.448 141.288 506.867 137.769 507.032 136.608L507.665 131.811" stroke="black" stroke-width="1.92543" stroke-linecap="round" stroke-linejoin="round"/>
<path d="M533.883 107.328C533.883 107.328 527.859 107.625 526.694 112.611" stroke="black" stroke-width="1.92543"/>
<path d="M536.072 120.503C537.714 120.461 539.846 120.22 540.62 118.555L536.468 113.974C535.456 112.852 534.857 111.417 534.77 109.908C534.605 107.375 534.902 103.356 532.478 100.681" stroke="black" stroke-width="1.92543"/>
<ellipse cx="531.367" cy="113.118" rx="1.83503" ry="1.55671" transform="rotate(-47.89 531.367 113.118)" fill="black"/>
<path d="M532.114 150.59L528.987 135.429" stroke="black" stroke-width="1.97838"/>
<path d="M611.398 218.826L591.241 235.308C615.492 272.292 597.137 279.08 597.137 279.08C593.577 279.761 589.982 280.245 586.368 280.528C568.838 281.792 550.856 277.268 536.407 267.136C507.16 246.616 481.686 205.547 495.272 169.79C496.415 166.765 497.812 163.843 499.447 161.053C500.856 158.628 502.65 156.449 504.759 154.6C512.297 148 523.005 146.433 532.119 150.595C533.827 151.374 535.443 152.343 536.935 153.482C544.573 159.327 551.517 167.634 557.503 176.351C562.818 184.235 567.601 192.464 571.82 200.985C572.985 203.311 574.042 205.509 574.976 207.523C583.443 204.099 590.543 198.282 597.147 191.999C589.161 206.905 611.398 218.826 611.398 218.826Z" fill="#353642"/>
<path d="M597.293 230.883C596.906 231.18 596.505 231.492 596.104 231.789" stroke="black" stroke-width="1.97838"/>
<path d="M537.7 168.223C543.046 178.46 548.392 188.715 553.738 198.99C557.772 206.745 564.588 211.533 574.188 207.858C584.632 203.858 593.057 196.211 600.85 188.418C608.643 180.625 616.54 173.172 627.79 171.162C642.334 168.563 656.094 176.488 666.001 186.503C667.57 188.075 667.853 190.52 666.685 192.409C665.948 193.597 664.731 194.405 663.35 194.623C661.97 194.842 660.563 194.448 659.495 193.546C654.802 189.541 647.164 183.748 641.853 183.673" stroke="black" stroke-width="1.97838"/>
<path d="M627.361 197.414C628.993 198.504 631.258 199.711 633.145 199.711" stroke="black" stroke-width="1.97838"/>
<path d="M648.278 185.658C651.759 187.38 653.028 192.418 650.57 195.428C647.454 199.295 643.549 202.453 639.117 204.693C634.267 207.113 631.154 205.636 626.38 202.683" stroke="black" stroke-width="1.97838"/>
<path d="M640.221 190.173C640.221 190.173 647.117 191.881 646.933 198.574C646.921 198.86 646.87 199.142 646.782 199.414" stroke="black" stroke-width="1.97838"/>
<path d="M635.348 194.39C635.348 194.39 644.598 200.367 640.197 204.127" stroke="black" stroke-width="1.97838"/>
<path d="M814.044 217.816C803.147 247.766 772.64 248.611 769.149 248.611C770.611 245.53 771.008 240.12 767.805 230.638C772.2 224.219 772.111 215.736 767.583 209.41C767.625 209.372 767.649 209.32 767.687 209.283C769.212 209.19 770.726 208.961 772.211 208.599C777.475 207.344 787.853 204.589 796.09 200.711C801.675 198.074 808.189 202.301 807.713 208.467C807.713 208.547 807.713 208.622 807.685 208.712C809.898 208.71 811.972 209.791 813.239 211.605C814.507 213.42 814.807 215.739 814.044 217.816Z" fill="#3FBDF1"/>
<path d="M674.209 288.062C670.539 294.359 664.826 299.723 659.307 304.402C639.876 320.847 614.492 329.196 589.019 329.522C563.461 329.196 537.983 320.819 518.462 304.52C456.784 253.017 467.931 192.206 477.908 164.049C478.259 163.075 478.735 162.15 479.323 161.298C480.901 158.99 483.39 157.466 486.163 157.109C491.399 157.831 496.154 162.176 495.315 168.903C495.315 169.162 495.211 169.521 495.187 169.78C481.611 205.537 507.094 246.606 536.322 267.126C549.582 276.433 565.819 281.009 581.953 280.712H582.137C583.52 280.684 584.902 280.619 586.283 280.519C595.345 279.858 604.152 277.688 612.874 275.061C623.111 271.999 633.234 268.287 643.461 265.687C647.056 264.772 650.66 263.89 654.283 263.065C656.373 262.636 658.512 262.488 660.642 262.626C673.204 263.475 682.03 274.646 674.209 288.062Z" fill="#D7E8F0"/>
<path d="M677.313 288.062C673.643 294.359 667.925 299.723 662.406 304.402C642.202 321.517 615.544 329.876 589.005 329.522C563.447 329.196 537.968 320.819 518.448 304.52C456.784 253.017 467.931 192.206 477.908 164.049C478.259 163.075 478.735 162.15 479.323 161.298C480.901 158.99 483.39 157.466 486.163 157.109C491.399 157.831 496.154 162.176 495.315 168.903C495.315 169.162 495.211 169.521 495.187 169.78C481.611 205.537 507.094 246.606 536.322 267.126C549.582 276.433 565.819 281.009 581.953 280.712H582.136C584.567 280.75 586.984 280.685 589.387 280.519C598.449 279.858 607.251 277.688 615.978 275.061C626.215 271.999 636.338 268.287 646.565 265.687C650.155 264.772 653.764 263.89 657.382 263.065C658.457 262.845 659.546 262.698 660.642 262.626C674.765 261.678 685.766 273.561 677.313 288.062Z" fill="#D7E8F0"/>
<path d="M593.265 329.437L599.473 338.221C599.473 338.221 637.036 339.683 657.594 356.939C661.396 360.132 659.123 366.336 654.16 366.336C652.916 366.34 651.71 365.902 650.759 365.1C645.905 361.024 627.361 348.212 585.415 347.825C544.544 347.443 528.869 360.09 524.534 364.699C523.534 365.751 522.145 366.343 520.694 366.336H519.887C514.792 366.336 512.637 359.901 516.66 356.778C533.822 343.433 572.292 339.178 572.292 339.178L578.858 329.272" fill="#353642"/>
<path d="M759.507 280.731C759.507 280.731 771.012 291.661 767.422 325.545C767.161 327.965 766.319 330.285 764.969 332.31L763.719 334.197C761.669 337.267 758.578 339.492 755.016 340.461C747.501 342.513 733.868 347.268 725.448 356.278C721.891 360.095 724.537 366.312 729.755 366.312C731.731 366.317 733.578 365.333 734.675 363.689C738.104 358.528 748.487 347.57 773.531 347.801C801.778 348.061 813.157 359.293 816.803 364.133C817.825 365.501 819.431 366.308 821.138 366.312C823.296 366.308 825.245 365.025 826.104 363.046C826.963 361.067 826.567 358.767 825.096 357.189C814.081 345.221 800.609 340.758 793.174 339.103C789.439 338.298 786.139 336.125 783.924 333.013C782.227 330.611 781.262 327.77 781.145 324.833C780.73 314.327 780.513 288.826 787.631 280.74" fill="#353642"/>
<path d="M612.969 275.075C633.201 265.253 655.16 258.81 676.751 252.743C698.479 246.639 720.419 241.313 742.425 236.308C751.219 234.313 760.092 232.534 768.842 230.284" stroke="black" stroke-width="1.92543"/>
<path d="M631.951 199.574H631.965H631.975" stroke="black" stroke-width="1.92543"/>
<path d="M629.682 198.296C628.413 199.551 623.885 206.254 622.748 207.457C616.502 214.151 609.867 220.47 602.878 226.383C601.119 227.845 599.256 229.355 597.293 230.883C596.906 231.18 596.505 231.492 596.104 231.789C582.802 241.884 565.442 251.602 549.403 245.375C548.979 245.219 548.563 245.04 548.153 244.856C523.552 233.841 506.358 206.254 504.858 179.625C504.806 178.757 504.778 177.894 504.768 177.04C504.636 169.761 505.712 162.482 512.693 158.643" stroke="black" stroke-width="1.92543"/>
<path d="M495.31 169.686L495.409 168.912C496.975 156.355 479.144 152.119 474.912 164.049C464.94 192.201 453.788 252.998 515.481 304.511C555.3 337.772 619.766 338.004 659.434 304.402C664.953 299.727 670.666 294.354 674.341 288.057C683.639 272.131 669.439 259.362 653.424 263.282" stroke="black" stroke-width="1.92543"/>
<path d="M593.265 329.437L599.473 338.221C599.473 338.221 637.036 339.683 657.594 356.939C661.397 360.132 659.123 366.336 654.16 366.336C652.916 366.34 651.71 365.902 650.759 365.1C645.905 361.024 627.361 348.212 585.415 347.825C544.544 347.443 528.869 360.09 524.534 364.699C523.534 365.751 522.145 366.343 520.694 366.336H519.887C514.792 366.336 512.637 359.901 516.66 356.778C533.822 343.433 572.292 339.178 572.292 339.178L578.858 329.272" stroke="black" stroke-width="1.92543"/>
<path d="M572.292 200.23C588.038 195.985 594.524 173.771 597.137 158.836" stroke="black" stroke-width="1.92543"/>
<path d="M557.489 176.365C566.384 175.201 574.035 169.499 577.693 161.308C578.456 159.683 578.404 157.793 577.551 156.213C575.834 153.034 573.273 149.349 573.881 145.538C574.32 142.849 576.532 140.957 579.07 140.349C580.357 140.012 581.711 140.035 582.986 140.415C584.532 140.853 585.8 141.963 586.439 143.439C587.057 144.887 586.321 146.321 585.184 147.264C584.047 148.208 582.717 148.543 581.33 148.92C581.151 148.972 580.66 149.076 580.117 149.18" stroke="black" stroke-width="1.92543"/>
<path d="M768.823 230.275C768.823 230.275 799.863 223.774 805.694 214.41C806.787 212.703 807.468 210.765 807.685 208.75" stroke="black" stroke-width="1.92543"/>
<path d="M616.087 214.283C670.227 208.533 731.335 209.382 731.335 209.382H765.63C767.846 209.385 770.055 209.125 772.21 208.608C777.475 207.353 787.853 204.603 796.089 200.721C801.675 198.084 808.189 202.311 807.713 208.481C807.713 208.556 807.713 208.636 807.685 208.726C809.893 208.727 811.962 209.805 813.229 211.614C814.495 213.423 814.799 215.736 814.043 217.812C802.477 249.601 768.823 248.606 768.823 248.606C764.521 248.733 760.229 248.903 755.922 249.125C717.98 250.969 680.374 256.295 643.56 265.697C633.333 268.296 623.21 272.004 612.973 275.07C604.246 277.707 595.43 279.863 586.368 280.523C568.838 281.792 550.856 277.264 536.407 267.131C504.759 244.922 477.521 198.617 499.447 161.03C507.188 147.765 524.718 144.132 536.935 153.482C554.168 166.667 567.933 192.352 574.995 207.504" stroke="black" stroke-width="1.92543"/>
<path d="M813.326 280.731H737.982" stroke="black" stroke-width="1.92543"/>
<path d="M722.773 265.513C722.797 257.117 729.595 250.316 737.991 250.29H813.345C821.743 250.313 828.545 257.115 828.568 265.513" stroke="black" stroke-width="1.92543"/>
<path d="M830.049 270.91C830.057 273.517 829.024 276.021 827.179 277.864C825.335 279.708 822.831 280.74 820.223 280.731H731.066C726.423 280.292 722.987 276.216 723.34 271.565C723.692 266.915 727.703 263.403 732.359 263.668H821.516C824.728 263.663 827.739 265.234 829.573 267.872C829.888 268.853 830.049 269.878 830.049 270.91Z" fill="#D7E8F0"/>
<path fill-rule="evenodd" clip-rule="evenodd" d="M830.049 270.909C830.057 273.517 829.024 276.02 827.179 277.864C825.335 279.708 822.831 280.74 820.223 280.731H731.066C727.505 280.809 724.181 278.954 722.377 275.882C720.574 272.81 720.574 269.003 722.377 265.932C724.181 262.86 727.505 261.005 731.066 261.083H820.223C824.481 261.081 828.256 263.822 829.573 267.871C829.888 268.853 830.049 269.878 830.049 270.909V270.909Z" stroke="black" stroke-width="1.92543"/>
<path d="M596.968 158.487L596.788 160.001C596.619 161.423 595.414 162.495 593.982 162.496H584.184C582.752 162.495 581.546 161.423 581.377 160.001L580.113 149.151C580.655 149.047 581.146 148.944 581.325 148.892C582.712 148.514 584.056 148.194 585.179 147.236C586.302 146.278 587.066 144.877 586.434 143.41C585.795 141.935 584.527 140.825 582.981 140.386C581.706 140.006 580.352 139.983 579.066 140.32L578.768 137.735C578.68 136.936 578.935 136.138 579.471 135.538C580.006 134.939 580.771 134.595 581.575 134.594H596.609C597.412 134.597 598.176 134.941 598.71 135.54C599.245 136.139 599.5 136.937 599.411 137.735L599.062 140.684" stroke="black" stroke-width="1.92543"/>
<path d="M598.274 147.425L598.26 147.529" stroke="black" stroke-width="1.92543"/>
<path d="M597.538 153.656V153.614" stroke="black" stroke-width="1.92543"/>
<path d="M597.68 153.656C597.638 153.649 597.595 153.649 597.553 153.656C597.493 153.649 597.433 153.649 597.373 153.656C596.106 153.661 595.053 154.635 594.951 155.899C594.849 157.162 595.731 158.293 596.982 158.501C597.242 158.553 597.51 158.553 597.77 158.501C598.947 158.313 600.022 157.719 600.808 156.822C601.855 155.1 602.582 153.203 602.954 151.222C602.96 151.202 602.96 151.181 602.954 151.161C603.242 149.701 603.351 148.212 603.279 146.727C603.279 146.09 603.199 145.458 603.124 144.84C602.828 142.717 601.179 141.037 599.062 140.703C599.01 140.703 598.949 140.703 598.897 140.674C596.916 140.429 594.137 141.179 593.623 143.415C593.151 145.434 595.34 147.165 597.137 147.321C597.137 147.321 597.609 147.382 598.274 147.425C599.605 147.514 601.817 147.5 603.279 146.727C603.495 146.615 603.697 146.481 603.883 146.326" stroke="black" stroke-width="1.92543"/>
<path d="M599.746 147.533H599.421H596.906H595.798C594.242 147.538 592.96 148.758 592.878 150.312C592.802 151.818 593.878 153.138 595.369 153.368C598.623 153.892 602.341 154 602.978 151.085" stroke="black" stroke-width="1.92543"/>
<path d="M759.507 280.731C759.507 280.731 771.012 291.661 767.422 325.545C767.161 327.965 766.319 330.285 764.969 332.31L763.719 334.197C761.669 337.267 758.578 339.492 755.016 340.461C747.501 342.513 733.868 347.268 725.448 356.278C721.891 360.095 724.537 366.312 729.755 366.312C731.731 366.317 733.578 365.333 734.675 363.689C738.104 358.528 748.487 347.57 773.531 347.801C801.778 348.061 813.157 359.293 816.803 364.133C817.825 365.501 819.431 366.308 821.138 366.312C823.296 366.308 825.245 365.025 826.104 363.046C826.963 361.067 826.567 358.767 825.096 357.189C814.081 345.221 800.609 340.758 793.174 339.103C789.439 338.298 786.139 336.125 783.924 333.013C782.227 330.611 781.262 327.77 781.145 324.833C780.73 314.327 780.513 288.826 787.631 280.74" stroke="black" stroke-width="1.92543"/>
<path fill-rule="evenodd" clip-rule="evenodd" d="M735.59 201.532V202.296C735.59 207.528 731.373 208.429 727.731 208.518L657.25 210.16C654.16 210.235 651.561 207.537 651.495 204.16V204.018C651.495 200.716 653.929 197.956 656.976 197.886C656.976 197.886 696.408 196.772 726.939 195.933C727.524 197.782 728.939 199.206 730.712 200.324C732.182 201.203 733.88 201.624 735.59 201.532V201.532Z" stroke="black" stroke-width="1.92543"/>
<path fill-rule="evenodd" clip-rule="evenodd" d="M773.055 126.952C773.058 127.812 772.861 128.662 772.479 129.433L740.958 194.05C740.21 195.569 738.828 196.679 737.185 197.084C735.883 197.417 734.505 197.277 733.297 196.687C731.322 195.715 730.075 193.7 730.085 191.498C730.087 191.233 730.106 190.969 730.142 190.706C730.226 190.121 730.401 189.553 730.661 189.022L762.177 124.395C763.349 122.007 766.013 120.743 768.605 121.345C771.196 121.948 773.029 124.258 773.027 126.919L773.055 126.952Z" stroke="black" stroke-width="1.92543"/>
<path d="M517.868 120.574C517.83 120.442 517.778 120.315 517.736 120.187C517.694 120.06 517.632 119.914 517.594 119.772" stroke="black" stroke-width="1.92543" stroke-linecap="round" stroke-linejoin="round"/>
<path d="M517.868 120.579L518.835 119.607L520.684 117.734" stroke="black" stroke-width="1.92543" stroke-linecap="round" stroke-linejoin="round"/>
<path d="M528.751 123.135C528.751 123.135 529.992 126.839 534.732 127.089" stroke="black" stroke-width="1.92543"/>
<path d="M507.665 131.811C503.419 133.957 498.603 129.315 498.938 125.489C499.155 122.867 498.56 121.055 496.621 119.154C496.494 119.027 496.376 118.895 496.263 118.767C494.753 117.124 494.397 114.726 495.367 112.715C496.249 110.663 498.15 109.46 496.829 107.248C496.249 106.291 495.826 105.248 495.574 104.158C495.041 101.233 495.8 98.2211 497.654 95.8978C499.598 93.5392 502.763 94.1902 505.363 93.3647C508.49 92.3693 509.952 89.0059 513.236 87.9728C514.877 87.4586 516.401 87.6898 518.043 88.0624C519.425 88.3879 520.812 88.7511 522.156 89.1757C523.501 89.6003 524.727 89.9635 526.071 89.5625C527.831 89.0483 529.185 87.4303 531.1 87.4161C533.015 87.402 534.487 88.5294 535.346 90.105C536.704 92.5769 536.714 96.1714 535.435 98.3037C534.114 100.511 531.35 101.445 528.973 101.922C525.935 102.545 522.793 102.71 519.717 102.983L517.929 103.422C516.513 103.861 515.72 105.364 516.156 106.781C517.262 110.587 518.784 114.261 520.694 117.734" stroke="black" stroke-width="1.92543"/>
<path d="M520.684 132.353C520.684 132.353 530.043 139.207 535.379 135.429C540.714 131.65 537.7 120.574 537.7 120.574" stroke="black" stroke-width="1.92543" stroke-linecap="round" stroke-linejoin="round"/>
<path d="M586.816 129.862C586.816 129.862 582.839 127.174 585.368 124.428C587.896 121.683 584.528 118.06 584.528 118.06" stroke="black" stroke-width="1.92543"/>
<path d="M590.486 130.329C590.486 130.329 593.118 128.551 591.43 126.73C589.741 124.909 591.991 122.484 591.991 122.484" stroke="black" stroke-width="1.92543"/>
<circle cx="608.624" cy="52.8525" r="51.8525" stroke="#CCDDE2" stroke-width="1.92543"/>
<circle cx="608.624" cy="52.8526" r="28.4783" stroke="#CCDDE2" stroke-width="1.92543"/>
<circle cx="608.624" cy="52.8525" r="4.8824" stroke="#CCDDE2" stroke-width="1.92543"/>
<path d="M618.733 36.5496L611.195 48.7013" stroke="#CCDDE2" stroke-width="1.92543"/>
<path d="M608.624 24.3743V29.4406" stroke="#CCDDE2" stroke-width="1.92543"/>
<path d="M637.102 52.8526H632.3" stroke="#CCDDE2" stroke-width="1.92543"/>
<path d="M608.624 81.3356V76.4108" stroke="#CCDDE2" stroke-width="1.92543"/>
<path d="M580.141 52.8526H584.472" stroke="#CCDDE2" stroke-width="1.92543"/>
<circle cx="658.321" cy="119.772" r="19.2937" fill="#3FBDF1"/>
<path d="M664.666 113.328C664.393 112.701 664.028 112.119 663.581 111.602C661.999 109.731 659.273 109.327 657.217 110.658C655.903 111.515 655.065 112.938 654.953 114.503C652.866 113.738 650.526 114.446 649.213 116.239C647.901 118.032 647.933 120.477 649.292 122.234C650.674 124.036 653.023 125.221 655.151 125.909C656.266 126.267 657.415 126.51 658.58 126.636C659.17 126.702 662.533 127.155 662.826 126.636C664.925 123.352 666.416 117.338 664.666 113.328Z" fill="white"/>
<g opacity="0.72">
<circle cx="706.409" cy="101.162" r="10.6233" fill="#3FBDF1"/>
<path d="M711.018 103.045C711.281 102.777 711.5 102.47 711.669 102.134C712.296 100.937 711.934 99.4614 710.824 98.6905C710.114 98.1999 709.215 98.0707 708.395 98.3414C708.348 97.1185 707.497 96.0743 706.309 95.7811C705.121 95.4879 703.882 96.0165 703.272 97.0772C702.694 98.2455 702.47 99.557 702.626 100.851C702.679 101.49 702.796 102.122 702.975 102.738C703.064 103.054 703.536 104.861 703.857 104.917C705.966 105.271 709.343 104.776 711.018 103.045Z" fill="white"/>
</g>
<path d="M689.974 172.401C686.023 170.533 684.335 165.815 686.203 161.864L691.118 151.472C692.986 147.521 697.704 145.833 701.655 147.702L712.047 152.616C715.998 154.485 717.686 159.202 715.818 163.153L710.903 173.545C709.035 177.496 704.317 179.184 700.366 177.316L689.974 172.401Z" fill="#3FBDF1"/>
<path d="M713.004 164.879L709.348 172.61C707.751 175.963 703.748 177.397 700.385 175.823L691.111 171.436C687.76 169.837 686.328 165.834 687.903 162.473L688.148 161.954C690.667 159.945 695.021 157.237 696.611 160.921C698.899 166.242 701.876 164.525 705.678 162.298C708.853 160.421 712.664 159.794 713.004 164.879Z" fill="white"/>
<circle cx="698.639" cy="153.807" r="2.85396" fill="white"/>
<path d="M747.331 116.305C747.899 117.339 748.311 118.452 748.553 119.607C749.433 123.904 747.984 128.347 744.742 131.301C743.477 132.419 741.869 133.292 740.59 134.462C739.658 135.266 738.971 136.318 738.609 137.495C738.543 137.897 738.381 138.277 738.137 138.603C737.392 139.405 736.661 138.132 736.015 137.915C734.973 137.576 733.843 137.631 732.84 138.07C727.4 140.345 721.112 138.472 717.803 133.592C714.494 128.712 715.081 122.177 719.207 117.965C721.184 115.951 723.769 114.663 726.283 113.352C728.481 112.187 730.67 110.946 733.057 110.248C738.652 108.573 744.624 111.361 747.331 116.305Z" fill="#3FBDF1"/>
<circle cx="724.802" cy="128.188" r="2.68886" fill="white"/>
<circle cx="732.043" cy="124.315" r="2.68886" fill="white"/>
<circle cx="738.836" cy="120.683" r="2.68886" fill="white"/>
<path d="M656.854 33.7899C656.854 33.7899 674.558 88.5483 742.709 85.5905C765.352 82.7602 792.301 85.5905 816.298 117.196C852.777 165.275 838.13 218.835 821.553 252.833" stroke="#CCDDE2" stroke-width="1.97838"/>
<g opacity="0.54">
<path d="M755.365 55.296C755.298 56.122 755.17 56.9419 754.983 57.749L752.86 66.9572C752.209 69.7876 751.478 72.75 749.459 74.8162C745.685 78.6655 739.411 77.7834 734.165 76.6182L721.287 73.7595C718.329 73.1038 715.325 72.4293 712.673 70.9622C710.022 69.4951 707.72 67.094 707.107 64.1268C706.635 61.938 707.14 59.6737 707.621 57.4943L709.565 48.6541C710.211 45.7577 710.937 42.7009 713.027 40.5922C716.749 36.842 722.934 37.6958 728.075 38.8138L741.265 41.6819C749.218 43.399 755.997 47.088 755.365 55.296Z" fill="#3FBDF1"/>
<path fill-rule="evenodd" clip-rule="evenodd" d="M733.701 46.6478L742.644 48.2896C743.873 48.5153 744.695 49.7061 744.469 50.9357L742.827 59.8785C741.674 66.1607 735.622 70.1108 729.283 68.9472C723.437 67.8739 719.342 61.9221 720.413 56.087C721.566 49.8047 727.419 45.4945 733.701 46.6478ZM733.679 59.3545L736.622 62.2059L737.854 55.4988L734.09 57.1189L734.5 54.8832L726.675 53.4466L725.444 60.1537L733.269 61.5902L733.679 59.3545Z" fill="#FAFAFA"/>
</g>
<path d="M477.229 366.312H884.576" stroke="black" stroke-width="1.97838"/>
<path d="M307.157 473.794C307.157 473.794 307.157 385.145 344.662 347.64C382.168 310.135 467.407 308.43 467.407 308.43" stroke="black" stroke-width="1.13652"/>
<path d="M472.845 308.418L465.491 313.358L464.89 304.52L472.845 308.418Z" fill="black"/>
<path d="M390.17 666.743H260.371H269.363L351.458 665.792C366.634 664.473 377.328 649.587 371.563 635.494C370.566 633.059 371.608 632.381 370.375 630.033C357.469 605.732 335.093 585.937 309.737 574.437C310.365 574.319 310.997 574.232 311.644 574.146C306.922 571.781 302.058 569.709 297.081 567.943C294.442 567.001 291.771 566.15 289.104 565.404C275.993 561.709 258.278 563.397 252.698 577.914C248.007 590.101 254.237 604.822 265.955 610.16L287.002 618.206C286.824 617.942 286.665 617.678 286.501 617.4L304.804 624.395C305.548 624.916 305.89 625.844 305.662 626.723C305.433 627.602 304.683 628.247 303.78 628.34L259.329 633.196C252.921 633.842 244.899 636.522 240.175 640.932C236.73 644.117 233.827 648.454 233.854 653.942C230.949 654.161 228.061 654.567 225.208 655.157C220.853 656.095 216.42 657.71 216.106 660.363C215.487 665.688 223.055 666.771 227.824 666.771L197.644 666.652C200.884 666.652 201.285 666.625 203.433 664.486C205.581 662.347 207.983 660.7 207.983 657.46L208.247 647.075C208.247 644.936 208.757 643.207 206.618 643.207H187.505C189.094 643.25 190.562 642.361 191.259 640.932C191.274 640.915 191.284 640.895 191.287 640.873C192.242 639.098 192.461 636.545 192.283 634.129L192.506 633.337L193.08 631.225L205.221 624.081C205.312 624.028 205.4 623.97 205.485 623.908C211.82 620.035 212.611 613.113 210.441 606.924C210.395 606.806 210.368 606.702 210.322 606.601C210.222 606.337 210.131 606.087 210.017 605.837C209.438 604.425 208.72 603.075 207.874 601.805C204.739 596.908 200.188 592.917 195.865 591.875C194.652 591.601 193.413 591.464 192.17 591.466C207.214 577.359 224.548 564.821 245.021 560.653C262.935 556.952 281.46 557.435 299.156 562.064C319.835 567.566 338.456 578.988 353.223 594.415C373.101 615.152 382.398 639.38 390.17 666.743Z" fill="#353642"/>
<path d="M187.937 604.394C187.224 605.799 186.056 606.922 184.625 607.58C183.402 608.194 182.107 608.653 180.77 608.945C178.568 609.314 177.789 607.921 176.383 606.556C175.582 605.781 174.659 605.142 173.653 604.663C172.431 604.063 171.006 604.041 169.767 604.604C168.92 604.981 168.375 605.82 168.374 606.747C168.465 608.417 170.768 609.737 172.069 610.429C173.768 611.231 175.535 611.883 177.348 612.376C181.794 613.741 174.39 616.586 172.834 616.763C169.505 617.214 166.126 617.134 162.822 616.526C163.771 618.645 164.498 620.857 164.993 623.125C165.507 625.296 166.108 627.908 165.685 630.092C165.17 632.659 163.437 634.565 161.298 635.858L152.984 601.172C159.181 598.22 166.329 597.986 172.706 600.526C174.855 601.318 177.267 600.785 178.882 599.161L179.733 598.337C180.918 598.079 182.153 598.178 183.282 598.619C185.298 599.379 189.03 601.823 187.937 604.394Z" fill="#3FBDF1"/>
<path fill-rule="evenodd" clip-rule="evenodd" d="M196.475 643.18H162.144C161.425 649.887 155.765 654.972 149.02 654.971H33.6051C33.6202 661.469 38.8842 666.733 45.3824 666.748H196.465C202.963 666.726 208.226 661.468 208.256 654.971V647.053C208.256 644.914 206.523 643.18 204.384 643.18H196.475Z" stroke="black" stroke-width="2.24284"/>
<path fill-rule="evenodd" clip-rule="evenodd" d="M143.459 566.191C144.473 567.588 145.202 569.172 145.602 570.851L161.867 638.656C162.226 640.128 162.32 641.652 162.144 643.157C161.425 649.864 155.765 654.949 149.02 654.948H31.4618C25.3522 654.944 20.0411 650.754 18.6151 644.814L2.36915 577.008C1.4184 573.073 2.32673 568.919 4.83325 565.739C7.33977 562.559 11.1671 560.706 15.2158 560.712H132.756C136.665 560.706 140.373 562.443 142.872 565.449L143.459 566.191Z" stroke="black" stroke-width="2.24284"/>
<ellipse cx="82.1309" cy="612.798" rx="12.7101" ry="14.2846" transform="rotate(-17.5 82.1309 612.798)" fill="#D7E8F0"/>
<path d="M312.285 573.75C301.914 575.484 293.941 580.226 288.59 590.041C283.798 598.824 283.238 609.541 288.349 618.256L267.484 610.256C255.402 604.722 251.151 592.426 255.993 579.798C261.75 564.753 280.016 563.006 293.536 566.837C296.29 567.611 299.038 568.494 301.759 569.468C305.315 570.742 308.824 572.169 312.285 573.75Z" fill="#353642"/>
<path d="M69.2917 560.721C77.5693 550.025 88.984 542.184 101.938 538.295C100.213 533.66 98.8437 528.9 97.8428 524.056C87.094 471.778 120.71 420.669 172.975 409.888C225.24 399.108 276.367 432.71 287.143 484.975C288.347 490.832 289.017 496.786 289.145 502.764C292.879 501.439 296.7 500.374 300.581 499.578C346.256 490.135 390.944 519.524 400.373 565.208C405.769 591.253 398.562 618.317 380.928 638.229" stroke="#9F9F9F" stroke-width="2.24284"/>
<path d="M183.218 643.184H186.445C188.326 643.23 190.118 642.387 191.282 640.909C191.297 640.892 191.308 640.872 191.314 640.85C192.471 639.268 192.998 637.311 192.793 635.362L192.529 633.309L192.311 631.653L193.102 631.198L205.508 623.88L206.345 623.398C212.402 619.835 212.839 613.191 210.463 606.897C210.422 606.783 210.391 606.679 210.35 606.574C210.245 606.31 210.14 606.064 210.04 605.814C209.433 604.416 208.716 603.068 207.897 601.782C204.761 596.881 200.215 592.895 195.888 591.853C194.675 591.576 193.436 591.439 192.192 591.443C189.598 591.443 186.732 591.939 185.225 593.436C201.316 577.604 220.115 562.746 242.728 558.136C260.649 554.442 279.181 554.934 296.881 559.575C317.559 565.076 336.199 576.512 350.966 591.939C351.744 592.749 352.504 593.568 353.242 594.406C371.749 614.747 383.554 640.44 391.012 666.734" stroke="black" stroke-width="2.24284"/>
<path d="M188.893 666.748H411.559" stroke="black" stroke-width="2.24284"/>
<path d="M244.949 666.743H270.214" stroke="black" stroke-width="1.49523"/>
<path fill-rule="evenodd" clip-rule="evenodd" d="M266.068 610.042C254.346 604.704 248.12 589.982 252.808 577.8C258.396 563.279 276.112 561.59 289.213 565.286C291.889 566.035 294.548 566.881 297.191 567.825C326.647 578.291 353.414 600.021 368.031 627.553C369.265 629.883 370.247 632.276 371.244 634.716C373.969 641.361 373.37 648.907 369.631 655.039C365.892 661.172 359.46 665.161 352.304 665.783L270.214 666.743H244.949C240.372 666.744 236.303 663.831 234.828 659.499C232.056 651.307 235.638 645.128 240.166 640.918C244.889 636.531 251.051 634.024 257.458 633.378L303.575 628.718C304.48 628.625 305.231 627.98 305.461 627.101C305.691 626.221 305.351 625.291 304.608 624.768L266.068 610.042Z" stroke="black" stroke-width="2.24284"/>
<path d="M252.321 642.324C248.111 644.745 243.784 648.536 242.336 653.337C240.671 658.866 244.58 663.89 249.021 666.766" stroke="black" stroke-width="2.24284"/>
<path d="M256.835 648.668C252.908 652.404 249.504 657.141 251.775 662.775C252.424 664.321 253.435 665.688 254.723 666.762" stroke="black" stroke-width="2.24284"/>
<path d="M264.539 655.976C264.539 655.976 255.497 662.698 261.24 666.73" stroke="black" stroke-width="2.24284"/>
<path d="M241.331 666.102L241.49 666.748H226.901C222.131 666.748 215.524 666.015 216.147 660.691C216.771 655.367 233.849 653.915 233.849 653.915" stroke="black" stroke-width="2.24284"/>
<path d="M215.16 498.677L184.11 503.323L189.521 507.137L199.642 515.242C201.225 516.356 200.83 518.987 201.708 520.584C202.389 525.511 200.08 530.372 195.829 532.956C191.579 535.54 186.2 535.353 182.14 532.48L157.725 515.305C155.03 513.445 152.867 510.913 151.45 507.96C149.452 498.017 155.582 486.959 167.377 485.207L201.317 480.11L196.311 476.224L180.898 464.228C179.577 463.206 178.476 461.929 177.657 460.474C176.956 455.433 179.384 450.472 183.794 447.932C188.204 445.393 193.714 445.783 197.721 448.92L225.217 470.308C227.465 472.035 229.283 474.259 230.527 476.806C232.402 486.417 226.404 496.989 215.16 498.677Z" fill="#3FBDF1"/>
<path d="M192.315 631.648C192.315 631.648 191.369 623.321 188.16 620.385" stroke="black" stroke-width="2.24284"/>
<path d="M152.665 601.755C158.93 598.678 166.205 598.397 172.688 600.981C174.839 601.775 177.255 601.242 178.872 599.616L185.212 593.409" stroke="black" stroke-width="2.24284"/>
<path d="M172.815 637.132L178.108 639.512C178.346 639.61 178.615 639.603 178.847 639.492C179.08 639.381 179.254 639.177 179.328 638.93L180.16 637.046" stroke="black" stroke-width="2.24284"/>
<path d="M173.68 626.62C174.584 628.696 174.251 631.103 172.815 632.854" stroke="black" stroke-width="1.49523"/>
<path d="M185.685 643.18C186.518 641.947 186.513 638.966 186.299 637.769C186.163 637.009 184.884 636.736 184.747 637.501C184.374 639.635 181.967 642.916 179.742 643.18" stroke="black" stroke-width="2.24284"/>
<circle cx="175" cy="628.34" r="6.79419" stroke="black" stroke-width="2.24284"/>
<path d="M172.724 634.738L171.514 638.142C169.816 637.537 167.948 637.632 166.32 638.405C164.693 639.178 163.439 640.567 162.836 642.265" stroke="black" stroke-width="2.24284"/>
<circle opacity="0.53" cx="175" cy="628.34" r="5.75208" fill="white"/>
<path d="M161.27 636.304C163.409 635.011 165.138 633.118 165.653 630.543C166.08 628.354 165.48 625.746 164.966 623.575C164.471 621.307 163.744 619.096 162.795 616.977C166.099 617.583 169.478 617.661 172.806 617.209C174.358 617.036 181.767 614.206 177.321 612.827C175.508 612.335 173.743 611.681 172.046 610.874C170.736 610.196 168.438 608.877 168.356 607.202C168.344 606.277 168.88 605.433 169.721 605.05C170.961 604.49 172.387 604.515 173.607 605.118C174.617 605.592 175.539 606.232 176.338 607.011C177.748 608.376 178.518 609.741 180.729 609.391C182.064 609.103 183.357 608.644 184.574 608.026C186.009 607.369 187.18 606.246 187.896 604.84C188.998 602.278 185.257 599.834 183.227 599.102C182.1 598.659 180.867 598.558 179.682 598.811" stroke="black" stroke-width="2.24284"/>
<path fill-rule="evenodd" clip-rule="evenodd" d="M215.16 498.677L184.11 503.323L189.521 507.137L196.52 512.052C200.259 514.584 202.341 518.938 201.963 523.438C201.586 527.939 198.809 531.885 194.7 533.759C190.591 535.634 185.791 535.145 182.144 532.48L157.73 515.305C155.035 513.445 152.872 510.913 151.455 507.961C146.262 497.18 152.333 482.822 165.898 480.797L192.825 476.765L196.311 476.224L180.898 464.228C177.377 461.488 175.586 457.078 176.198 452.658C176.811 448.239 179.735 444.483 183.869 442.804C188.002 441.125 192.717 441.779 196.238 444.519L223.733 465.908C227.253 468.584 229.664 472.462 230.509 476.802C232.402 486.418 226.404 496.989 215.16 498.677V498.677Z" stroke="black" stroke-width="2.24284"/>
<path d="M147.008 551.461L146.708 543.529L143.19 547.133C141.948 548.402 139.912 548.427 138.64 547.187C137.37 545.945 137.346 543.909 138.585 542.637L144.888 536.202C146.215 534.843 148.225 534.406 149.997 535.09C151.769 535.774 152.963 537.448 153.034 539.347L153.329 547.438L155.923 544.512C156.49 543.87 157.288 543.481 158.142 543.43C158.996 543.379 159.835 543.67 160.474 544.239C161.115 544.805 161.504 545.603 161.556 546.456C161.608 547.31 161.319 548.149 160.752 548.789L155.641 554.555C154.307 556.078 152.177 556.629 150.271 555.946C148.366 555.263 147.072 553.484 147.008 551.461Z" fill="#D7E8F0"/>
<path d="M173.375 565.768L177.12 564.931L175.095 563.565C174.381 563.084 174.19 562.116 174.668 561.399C175.149 560.684 176.119 560.495 176.834 560.976L180.447 563.392C181.213 563.904 181.599 564.822 181.43 565.727C181.26 566.632 180.567 567.348 179.669 567.547L175.833 568.412L177.457 569.39C177.811 569.604 178.066 569.949 178.165 570.35C178.264 570.751 178.199 571.176 177.985 571.529C177.541 572.266 176.584 572.504 175.846 572.062L172.661 570.137C171.822 569.636 171.375 568.673 171.533 567.709C171.69 566.745 172.421 565.976 173.375 565.768Z" fill="#D7E8F0"/>
<path d="M163.905 587.643L164.21 585.14L162.922 586.096C162.704 586.258 162.431 586.328 162.162 586.288C161.893 586.249 161.651 586.105 161.489 585.887C161.153 585.432 161.247 584.792 161.698 584.453L163.973 582.747C164.458 582.385 165.111 582.348 165.634 582.651C166.157 582.954 166.449 583.539 166.376 584.139L166.067 586.697L167.027 585.905C167.237 585.732 167.507 585.65 167.778 585.676C168.048 585.703 168.297 585.836 168.47 586.046C168.642 586.256 168.725 586.526 168.698 586.796C168.672 587.067 168.539 587.316 168.329 587.488L166.435 589.045C165.94 589.439 165.256 589.496 164.702 589.189C164.148 588.882 163.834 588.272 163.905 587.643Z" fill="#D7E8F0"/>
<path d="M312.285 574.064L312.094 574.387C311.949 574.296 311.797 574.217 311.639 574.15L312.285 574.064Z" fill="#353642"/>
</svg>
