<svg width="519" height="509" viewBox="0 0 519 509" fill="none" xmlns="http://www.w3.org/2000/svg">
<path d="M517 463.256H443.766V471.044C443.766 491.206 460.16 507.55 480.383 507.55C500.606 507.55 517 491.206 517 471.044V463.256Z" fill="#D7E8F0"/>
<path d="M199.379 111.851L199.259 38.8406C199.262 18.5021 215.718 2.01266 236.025 2H480.383" stroke="#CCDDE2" stroke-width="2.63406"/>
<path d="M443.471 470.343V463.057V105.986V39.2075" stroke="#CCDDE2" stroke-width="2.63406"/>
<path d="M443.766 97.442H517V39.2634C517 19.0096 500.606 2.59058 480.383 2.59058C460.16 2.59058 443.766 19.0096 443.766 39.2634V105.945" fill="#D7E8F0"/>
<path d="M443.461 97.1625H517V38.8984C517 18.6148 500.538 2.17163 480.231 2.17163C459.923 2.17163 443.461 18.6148 443.461 38.8984V105.678" stroke="#CCDDE2" stroke-width="2.63406"/>
<path d="M443.45 462.76V470.046C443.453 490.33 459.917 506.773 480.225 506.773" stroke="#CCDDE2" stroke-width="2.63406"/>
<path d="M253.007 506.778H235.899" stroke="#CCDDE2" stroke-width="2.63406"/>
<path d="M443.461 462.754H517V470.04C516.993 490.327 500.53 506.772 480.219 506.778H302.687" stroke="#CCDDE2" stroke-width="2.63406"/>
<path d="M402.306 163.673H342.898" stroke="#CCDDE2" stroke-width="2.63406"/>
<path d="M402.306 186.68H342.898" stroke="#CCDDE2" stroke-width="2.63406"/>
<path d="M402.306 209.693H342.898" stroke="#CCDDE2" stroke-width="2.63406"/>
<path d="M402.306 232.7H342.898" stroke="#CCDDE2" stroke-width="2.63406"/>
<path d="M402.306 255.713H342.898" stroke="#CCDDE2" stroke-width="2.63406"/>
<path d="M402.306 278.72H342.898" stroke="#CCDDE2" stroke-width="2.63406"/>
<path d="M402.306 355.588H342.898" stroke="#CCDDE2" stroke-width="2.63406"/>
<path d="M402.306 366.317H342.898" stroke="#CCDDE2" stroke-width="2.63406"/>
<path d="M402.306 377.045H342.898" stroke="#CCDDE2" stroke-width="2.63406"/>
<path d="M402.306 387.774H342.898" stroke="#CCDDE2" stroke-width="2.63406"/>
<rect x="316.309" y="133.506" width="111.585" height="285.419" rx="11.9891" stroke="#CCDDE2" stroke-width="2.63406"/>
<path d="M342.898 110.568H295.897" stroke="#CCDDE2" stroke-width="2.63406"/>
<path d="M342.898 83.54H303.483" stroke="#CCDDE2" stroke-width="2.63406"/>
<path d="M342.898 97.0538H297.975" stroke="#CCDDE2" stroke-width="2.63406"/>
<path d="M342.898 70.0206H289.725" stroke="#CCDDE2" stroke-width="2.63406"/>
<circle cx="385.888" cy="79.3682" r="7.08716" fill="#D7E8F0"/>
<path d="M367.579 108.898C367.755 99.0625 375.9 91.1801 385.887 91.1801C395.875 91.1801 404.02 99.0625 404.196 108.898H367.579Z" fill="#D7E8F0"/>
<rect x="361.083" y="65.7844" width="49.6101" height="49.6101" rx="5.42167" stroke="#CCDDE2" stroke-width="2.63406"/>
<path d="M387.67 438.983L393.052 449.938C393.343 450.531 393.904 450.942 394.554 451.041L406.603 452.799C407.363 452.904 407.997 453.438 408.233 454.172C408.47 454.907 408.267 455.713 407.711 456.246L399.01 464.777C398.539 465.239 398.325 465.906 398.439 466.558L400.49 478.622C400.619 479.377 400.31 480.14 399.694 480.59C399.078 481.04 398.262 481.099 397.588 480.742L386.83 475.06C386.248 474.75 385.55 474.75 384.968 475.06L374.216 480.742C373.542 481.097 372.726 481.038 372.109 480.588C371.493 480.139 371.182 479.377 371.308 478.622L373.365 466.558C373.478 465.906 373.264 465.24 372.794 464.777L364.064 456.217C363.509 455.684 363.306 454.878 363.542 454.144C363.778 453.409 364.412 452.875 365.173 452.77L377.17 451.012C377.822 450.915 378.385 450.503 378.678 449.909L384.082 438.983C384.419 438.295 385.115 437.86 385.876 437.86C386.638 437.86 387.334 438.295 387.67 438.983Z" fill="#D7E8F0"/>
<path d="M235.184 466.349H337.543" stroke="#CCDDE2" stroke-width="2.63406"/>
<path d="M235.184 480.698H337.543" stroke="#CCDDE2" stroke-width="2.63406"/>
<path fill-rule="evenodd" clip-rule="evenodd" d="M199.88 115.147C196.791 130.982 189.951 201.014 183.815 267.958C183.613 268.113 183.401 268.254 183.18 268.381C182.734 268.661 182.288 268.953 181.825 269.198C181.825 269.198 181.79 269.198 181.767 269.238C181.756 269.234 181.744 269.234 181.733 269.238L180.898 269.701L180.561 269.873C180.206 270.056 179.874 270.222 179.52 270.37L179.411 270.428C179.131 270.559 178.839 270.69 178.536 270.799L178.09 271.005C177.735 271.136 177.364 271.285 177.009 271.411L176.06 271.748C175.902 271.787 175.747 271.837 175.597 271.897C175.299 271.988 175.025 272.08 174.704 272.154C174.596 272.194 174.481 272.211 174.373 272.251C173.978 272.36 173.572 272.457 173.16 272.548C172.748 272.64 172.417 272.714 172.016 272.789C171.963 272.809 171.907 272.823 171.851 272.829C171.813 272.837 171.774 272.837 171.736 272.829C171.33 272.903 170.918 272.977 170.529 273.034C170.455 273.034 170.381 273.034 170.289 273.069C169.803 273.143 169.323 273.2 168.837 273.234C168.35 273.269 167.83 273.332 167.31 273.349C166.789 273.366 166.269 273.383 165.748 273.383C163.301 273.394 160.861 273.128 158.474 272.588C146.573 269.846 137.172 260.737 134.059 248.932C133.933 248.361 133.802 247.789 133.687 247.217C133.238 245.058 133.014 242.859 133.018 240.654C133.021 242.58 132.855 244.503 132.521 246.4C132.372 247.251 132.183 248.075 131.949 248.909C128.19 263.328 115.165 273.39 100.259 273.39C85.3534 273.39 72.3282 263.328 68.5699 248.909C68.2308 247.614 67.9767 246.299 67.8093 244.97C67.6207 243.539 67.5271 242.098 67.5291 240.654C67.5224 242.134 67.4231 243.612 67.2317 245.079C67.0526 246.369 66.7986 247.648 66.471 248.909C62.8206 262.818 50.5313 272.727 36.16 273.349C35.6967 273.349 35.2335 273.383 34.7702 273.383C16.7162 273.364 2.08696 258.736 2.07435 240.689V240.637H2.00001V209.263C1.99545 202.02 4.87173 195.073 9.99513 189.952C15.1185 184.83 22.0687 181.955 29.3143 181.959H160.001C163.475 181.959 166.292 179.144 166.292 175.671C166.292 172.198 163.475 169.382 160.001 169.382H106.241C100.087 169.379 95.0941 164.403 95.0721 158.252V126.283C95.0847 120.138 100.065 115.159 106.213 115.147L199.88 115.147Z" stroke="#CCDDE2" stroke-width="2.63406"/>
<path d="M363.331 506.653L34.2612 507.333C28.1203 507.318 23.1451 502.347 23.1262 496.208V271.262C26.8545 272.688 30.813 273.416 34.8046 273.412C35.2678 273.412 35.7253 273.412 36.1886 273.378C44.7147 273.038 52.7677 269.37 58.6187 263.162" stroke="#CCDDE2" stroke-width="2.63406"/>
<path d="M137.902 257.873C142.518 265.338 149.933 270.643 158.491 272.6" stroke="#CCDDE2" stroke-width="2.63406"/>
<path d="M178.227 461.684H113.951" stroke="#CCDDE2" stroke-width="2.63406"/>
<path d="M44.6242 461.341C39.6735 460.093 36.2016 455.646 36.1943 450.542V273.389C44.7184 273.032 52.7655 269.36 58.6188 263.156" stroke="#CCDDE2" stroke-width="2.63406"/>
<path d="M137.902 257.873C142.518 265.338 149.933 270.643 158.491 272.6" stroke="#CCDDE2" stroke-width="2.63406"/>
<path d="M75.2041 388.44C70.4793 384.223 67.7754 378.193 67.7693 371.861V317.552C67.8101 305.255 77.7722 295.297 90.0736 295.256H141.442C153.744 295.297 163.706 305.255 163.747 317.552V371.861C163.706 384.158 153.744 394.116 141.442 394.157H110.451" stroke="#CCDDE2" stroke-width="2.63406"/>
<path fill-rule="evenodd" clip-rule="evenodd" d="M302.348 324.697C303.972 320.793 305.539 317.706 306.466 315.968C306.94 315.086 306.619 313.987 305.745 313.498L295.92 309.359C295.143 308.92 294.191 308.927 293.42 309.376C292.649 309.826 292.174 310.651 292.174 311.543C292.174 320.118 289.715 328.196 281.136 328.196C272.558 328.196 270.093 320.118 270.093 311.543V311.171C270.096 310.312 269.66 309.511 268.937 309.048C268.213 308.584 267.303 308.523 266.524 308.885L256.498 312.606C255.997 312.837 255.625 313.28 255.485 313.813C255.346 314.347 255.453 314.916 255.778 315.362L255.915 315.55C266.865 330.838 268.791 350.814 260.965 367.911L257.425 375.686C256.917 376.803 257.012 378.101 257.677 379.132C258.342 380.164 259.486 380.786 260.713 380.785H304.321C305.569 380.784 306.728 380.139 307.385 379.079C308.043 378.019 308.106 376.695 307.552 375.577L303.852 368.111C297.097 354.537 296.549 338.706 302.348 324.697V324.697Z" stroke="#CCDDE2" stroke-width="2.63406"/>
<path d="M265.609 349.463H298.591" stroke="#CCDDE2" stroke-width="2.63406"/>
<path d="M273.044 349.468C273.198 355.082 273.101 369.535 268.468 380.762" stroke="#CCDDE2" stroke-width="2.63406"/>
<path d="M295.691 380.762C291.065 369.535 290.973 355.082 291.116 349.468" stroke="#CCDDE2" stroke-width="2.63406"/>
<path d="M282.103 380.762V349.468" stroke="#CCDDE2" stroke-width="2.63406"/>
<path d="M79.2029 415.802C80.9973 414.348 83.0841 413.01 84.5288 411.402C88.5762 406.882 87.0168 401.104 89.6138 396.161C92.7727 390.114 102.714 385.892 112.477 386.435C111.552 389.288 110.918 392.226 110.585 395.206C110.298 397.855 110.992 400.807 110.229 403.37C108.985 407.5 102.352 410 101.544 414.24C100.833 417.987 105.225 421.488 104.496 425.299C103.728 429.389 97.4278 431.649 95.1117 435.265C93.2198 438.205 94.1084 441.558 93.1281 444.699C91.9414 448.475 87.8252 451.816 82.4305 453.383L81.8974 453.538C79.9151 451.844 78.2142 449.847 76.8582 447.622" stroke="#CCDDE2" stroke-width="2.63406"/>
<path d="M106.514 391.195C91.9529 406.019 85.1021 437.273 82.4363 453.395C82.2185 454.756 82.0236 456.004 81.863 457.125" stroke="#CCDDE2" stroke-width="2.63406"/>
<path fill-rule="evenodd" clip-rule="evenodd" d="M107.856 466.21L101.154 503.591C100.77 505.758 98.8817 507.336 96.6769 507.333H61.6546C59.4289 507.332 57.5302 505.725 57.1658 503.534L50.9915 466.21H107.856Z" stroke="#CCDDE2" stroke-width="2.63406"/>
<path fill-rule="evenodd" clip-rule="evenodd" d="M114.225 462.039C114.031 464.395 112.059 466.209 109.69 466.21H49.2828C46.9383 466.209 44.9782 464.431 44.7538 462.102C44.6327 460.829 45.0551 459.564 45.9172 458.618C46.7793 457.671 48.0012 457.131 49.2828 457.131H109.69C110.961 457.131 112.173 457.662 113.035 458.594C113.896 459.526 114.327 460.775 114.225 462.039V462.039Z" stroke="#CCDDE2" stroke-width="2.63406"/>
<path d="M62.4054 407.1C67.7542 423.273 70.8328 441.249 72.4036 452.691C72.5684 452.758 72.7368 452.815 72.9081 452.863C74.4539 451.295 75.7841 449.529 76.8638 447.611C78.1945 445.39 79.2768 443.03 80.0914 440.574C81.238 436.912 79.22 433.136 78.7384 429.418C78.1651 424.904 79.885 420.155 79.22 415.773C79.22 415.641 79.1741 415.493 79.134 415.338C79.134 415.275 79.134 415.184 79.0881 415.098C78.8664 413.979 78.445 412.91 77.8441 411.94C76.0325 408.976 72.5125 406.86 70.3913 404.028C66.5044 398.799 67.9892 392.111 65.5012 386.378C64.7578 384.694 63.7059 383.163 62.3997 381.864C58.0312 377.379 50.739 374.61 43.5327 375.108C44.4326 378.434 45.0463 381.832 45.3672 385.263C45.6252 388.341 44.9717 391.762 45.694 394.725C46.8922 399.52 53.2729 402.414 54.0354 407.312C54.7348 411.648 50.5211 415.727 51.1976 420.127C51.9601 424.875 57.9853 427.496 60.2154 431.678C62.027 435.076 61.1786 439.001 62.136 442.616C62.2054 442.906 62.2935 443.191 62.3997 443.469C62.3997 443.469 64.1711 450.242 72.3978 452.685" stroke="#CCDDE2" stroke-width="2.63406"/>
<path d="M72.9712 457.113C72.8221 455.786 72.6272 454.327 72.3979 452.714C70.827 441.272 67.7485 423.296 62.3997 407.123C59.0116 396.859 54.7119 387.317 49.2771 380.646" stroke="#CCDDE2" stroke-width="2.63406"/>
<path d="M70.4028 404.045C70.4028 404.045 71.3602 389.124 79.4264 384.593C87.4926 380.062 87.3206 405.492 87.3206 405.492" stroke="#CCDDE2" stroke-width="2.63406"/>
<path d="M79.2028 415.802C79.2028 415.802 77.5517 407.266 80.4411 398.873" stroke="#CCDDE2" stroke-width="2.63406"/>
<rect x="23.2097" y="197.005" width="155.476" height="21.1622" rx="9.15424" stroke="#CCDDE2" stroke-width="2.63406"/>
<path d="M257.728 85.8646C257.728 85.8646 235.267 86.1044 220.913 107.602C206.56 129.1 201.122 155.063 202.039 186.571L200.44 252.589C200.44 252.589 224.26 255.701 232.293 244.864C232.293 244.864 234.081 235.888 247.483 228.219L257.728 85.8646Z" fill="#3FBDF1"/>
<path d="M242.158 390.612L250.05 397.765V401.871L247.751 402.688C247.751 402.688 236.829 403.85 237.697 401.794C238.565 399.737 242.158 390.612 242.158 390.612Z" fill="#2E2E2E"/>
<path d="M212.252 458.667L191.09 506.366H137.326C134.581 506.442 132.01 505.028 130.615 502.676C129.22 500.324 129.22 497.404 130.615 495.052C132.01 492.699 134.581 491.286 137.326 491.361C153.661 491.367 167.705 479.857 170.814 463.915L171.844 458.667C171.907 458.36 212.252 458.667 212.252 458.667Z" fill="black"/>
<path d="M358.129 456.596L330.821 502.95C329.515 505.406 326.966 506.946 324.186 506.96C321.405 506.974 318.841 505.46 317.51 503.018C316.179 500.576 316.297 497.6 317.816 495.271C326.119 481.189 323.284 463.199 311.054 452.352C309.158 450.675 307.618 449.312 306.748 448.55L334.972 424.276L358.129 456.596Z" fill="black"/>
<path d="M363.445 418.37H249.44V262.132H249.412C248.014 238.433 238.366 235.28 238.366 235.28L243.522 231.218C228.885 163.608 241.804 114.097 255.553 85.7254C259.585 77.2845 264.448 69.2638 270.07 61.7814C270.133 61.6957 270.202 61.6272 270.253 61.5472C271.357 60.1037 273.26 59.5214 274.986 60.0989C276.712 60.6765 277.877 62.2857 277.884 64.101L277.953 82.726C301.333 81.7605 315.053 108.298 320.69 127.437C326.677 147.799 326.528 170.075 322.151 190.557C320.462 198.57 317.804 206.35 314.234 213.724L363.445 418.37Z" fill="#2E2E2E"/>
<path d="M232.724 64.6033L207.271 95.4174L216.773 95.3659L201.156 112.351C196.775 113.73 172.092 403.015 172.092 403.015H183.076L212.174 253.857C208.388 254.318 204.552 254.189 200.806 253.474L202.454 171.583C203.602 145.304 214.201 103.601 240.653 90.5333L240.75 90.4818C241.388 77.6312 244.735 69.2128 244.735 69.2128C237.908 70.7283 232.724 64.6033 232.724 64.6033V64.6033Z" fill="#2E2E2E"/>
<path d="M211.878 253.857L171.956 459.263L170.926 464.54C167.808 480.56 153.768 492.122 137.443 492.114C134.698 492.038 132.128 493.46 130.733 495.825C129.338 498.19 129.338 501.126 130.733 503.491C132.128 505.856 134.698 507.277 137.443 507.202H191.199L212.358 459.24L249.724 374.587" stroke="black" stroke-width="2.63406"/>
<path d="M249.719 263.091V419.426H363.555L314.42 214.678" stroke="black" stroke-width="2.63406"/>
<path d="M278.192 83.555L256.118 102.993L278.192 102.53L278.827 180.918C278.927 194.424 273.052 207.283 262.775 216.05L244.681 231.486C223.813 137.393 255.22 82.423 270.512 62.3558C271.612 60.908 273.514 60.3237 275.238 60.9037C276.962 61.4838 278.123 63.0988 278.124 64.917L278.192 83.555C301.536 82.5888 315.232 109.145 320.859 128.297C326.835 148.673 326.681 170.965 322.318 191.461C319.647 203.952 314.763 216.187 307.375 226.672C300.472 236.432 291.328 244.247 282.613 252.365C279.525 255.224 276.322 257.957 273.017 260.581L249.707 278.653" stroke="black" stroke-width="2.63406"/>
<path d="M273.127 48.7988C271.345 51.3189 268.446 52.8086 265.361 52.7885C264.047 52.8067 262.732 52.7343 261.427 52.5719C259.907 52.3725 259.082 51.9564 260.124 51.1983C260.453 50.9524 260.761 50.6798 261.046 50.3833C262.884 48.4849 264.17 46.12 264.764 43.5437C265.413 40.6654 264.764 37.8441 262.521 36.2995C261.984 35.9319 261.392 35.6529 260.767 35.4731C259.757 35.1618 258.713 34.9705 257.659 34.9031C257.129 34.8689 256.583 34.8518 256.042 34.8518C255.472 31.3807 254.174 26.4962 251.527 24.4614C250.211 23.4484 248.444 23.2445 246.933 23.9313C242.947 25.4531 237.032 26.6273 233.878 26.0174C233.683 25.8185 233.556 25.5633 233.514 25.2878C233.953 24.1876 234.461 23.1159 235.034 22.079C235.647 21.0137 236.332 19.9911 237.083 19.0183C242.737 11.8082 252.62 8.41696 261.564 10.104C262.991 10.3658 264.388 10.7746 265.731 11.3238C269.842 13.5238 272.723 17.0234 274.59 21.2525C279.72 35.4161 276.298 44.2505 273.127 48.7988Z" fill="#3FBDF1"/>
<path d="M273.295 419.344L306.979 449.177C307.861 449.938 309.39 451.3 311.284 452.977C323.507 463.806 326.352 481.768 318.074 495.841C315.959 499.438 317.161 504.068 320.759 506.183C324.357 508.297 328.988 507.095 331.104 503.499L358.377 457.189L335.197 424.906L331.19 419.361" stroke="black" stroke-width="2.63406"/>
<path d="M249.995 398.747L242.283 391.914" stroke="black" stroke-width="2.63406"/>
<path d="M232.62 64.2156L207.23 95.0619L216.705 95.0047L201.145 111.996C200.887 112.07 200.573 113.221 200.143 115.304C197.052 131.156 190.205 201.262 184.062 268.276C177.736 337.203 172.149 402.862 172.149 402.862H183.112" stroke="black" stroke-width="2.63406"/>
<path d="M249.995 402.862H237.469" stroke="black" stroke-width="2.63406"/>
<path d="M249.995 262.84C240.56 262.622 236.089 258.685 234.091 254.17C231.286 247.772 233.479 240.263 238.963 235.942L244.98 231.209" stroke="black" stroke-width="2.63406"/>
<path d="M232.614 246.776C232.614 246.776 216.711 256.413 200.79 253.22L202.433 171.274C203.813 140.29 218.199 87.8799 256.155 86.1344" stroke="black" stroke-width="2.63406"/>
<path d="M251.907 65.9841C251.907 65.9841 229.689 79.9079 228.435 47.9284C228.057 38.1423 228.486 26.5477 234.835 18.4899C240.52 11.2448 250.458 7.83964 259.452 9.53361C266.894 10.9472 271.634 15.514 274.308 21.5517" stroke="black" stroke-width="2.63406"/>
<path d="M249.995 263.074C250.004 262.997 250.004 262.918 249.995 262.84C248.604 239.101 238.963 235.942 238.963 235.942" stroke="black" stroke-width="1.75407"/>
<path d="M243.806 69.0057L240.486 90.169" stroke="black" stroke-width="2.63406"/>
<path d="M232.775 21.5631C226.792 28.4764 239.604 26.8968 246.514 24.2529C252.48 21.9637 254.821 30.1875 255.674 35.2866" stroke="black" stroke-width="2.63406"/>
<path d="M270.638 51.4767V62.1499" stroke="black" stroke-width="2.63406"/>
<ellipse cx="235.94" cy="42.0109" rx="3.50358" ry="7.99487" stroke="black" stroke-width="1.75407"/>
<ellipse cx="225.939" cy="42.0109" rx="3.50358" ry="7.99487" stroke="black" stroke-width="1.75407"/>
<ellipse cx="235.876" cy="41.8653" rx="3.54358" ry="7.97305" fill="black"/>
<ellipse cx="225.836" cy="41.8653" rx="3.54358" ry="7.97305" fill="black"/>
<path d="M238.722 38.9167C242.208 37.7662 245.771 36.8633 249.385 36.215C252.822 35.6438 256.672 35.1468 260.053 36.1807C263.731 37.3231 264.877 40.7502 264.063 44.2744C263.477 46.8741 262.192 49.2654 260.345 51.1915C260.055 51.4928 259.741 51.7699 259.405 52.0197C257.595 53.3449 261.37 53.6133 264.676 53.6133C267.781 53.6323 270.7 52.1399 272.497 49.615C275.688 45.0455 279.131 36.2035 273.958 21.9581" stroke="black" stroke-width="2.63406"/>
<path d="M258.684 35.8494C256.449 36.9463 255.112 39.2914 255.309 41.7669" stroke="black" stroke-width="2.63406"/>
<path d="M483.284 507.41H42.9802" stroke="black" stroke-width="2.63406"/>
<path d="M109.656 147.304C109.656 147.512 109.16 147.68 108.168 147.808C107.192 147.936 106.216 148 105.24 148C104.264 148 103.64 147.944 103.368 147.832C103.096 147.72 102.96 147.544 102.96 147.304V132.568C102.96 132.168 103.416 131.8 104.328 131.464C105.256 131.128 106.304 130.96 107.472 130.96C107.888 130.96 108.2 130.976 108.408 131.008C108.952 131.088 109.336 131.432 109.56 132.04L111.864 138.232H111.96V132.568C111.96 132.168 112.416 131.8 113.328 131.464C114.24 131.128 115.28 130.96 116.448 130.96C117.456 130.96 118.096 131.152 118.368 131.536C118.56 131.808 118.656 132.056 118.656 132.28V147.304C118.656 147.512 118.16 147.68 117.168 147.808C116.192 147.936 115.112 148 113.928 148C112.76 148 112.12 147.848 112.008 147.544L109.776 141.64H109.656V147.304ZM127.281 147.424C127.281 147.6 126.793 147.744 125.817 147.856C124.841 147.952 123.857 148 122.865 148C121.889 148 121.265 147.96 120.993 147.88C120.721 147.784 120.585 147.632 120.585 147.424V132.496C120.585 132.144 121.049 131.8 121.977 131.464C122.905 131.112 123.945 130.936 125.097 130.936C126.121 130.936 126.793 131.152 127.113 131.584C127.225 131.744 127.281 131.904 127.281 132.064V147.424ZM132.906 148C132.506 148 131.922 148 131.154 148C130.402 148 129.89 147.944 129.618 147.832C129.346 147.72 129.21 147.544 129.21 147.304V132.16C129.21 131.792 129.698 131.504 130.674 131.296C131.666 131.072 132.722 130.96 133.842 130.96C134.962 130.96 135.762 131.104 136.242 131.392C136.722 131.68 137.002 131.984 137.082 132.304L138.714 138.64H138.93L140.466 132.592C140.578 132.16 141.098 131.784 142.026 131.464C142.97 131.128 144.002 130.96 145.122 130.96C146.242 130.96 147.066 131.048 147.594 131.224C148.138 131.4 148.41 131.624 148.41 131.896V147.304C148.41 147.512 147.954 147.68 147.042 147.808C146.13 147.936 145.018 148 143.706 148C142.394 148 141.738 147.768 141.738 147.304C141.738 146.04 141.874 143.792 142.146 140.56H141.93L140.682 146.824C140.634 147.064 140.434 147.24 140.082 147.352C139.746 147.464 139.234 147.52 138.546 147.52C137.858 147.52 137.434 147.472 137.274 147.376C137.13 147.28 137.034 147.096 136.986 146.824L135.69 140.56H135.474C135.762 143.856 135.906 146.104 135.906 147.304C135.906 147.72 134.906 147.952 132.906 148ZM157.599 148H152.343C151.543 148 151.007 147.944 150.735 147.832C150.463 147.72 150.327 147.544 150.327 147.304V131.872C150.327 131.104 152.639 130.72 157.263 130.72C159.919 130.72 161.751 130.976 162.759 131.488C163.783 132.016 164.439 132.688 164.727 133.504C164.887 133.984 164.967 134.544 164.967 135.184C164.967 136.432 164.751 137.368 164.319 137.992C163.903 138.616 163.447 138.968 162.951 139.048C163.703 139.208 164.327 139.576 164.823 140.152C165.319 140.728 165.567 141.704 165.567 143.08C165.567 144.68 165.079 145.864 164.103 146.632C163.255 147.304 161.959 147.728 160.215 147.904C159.479 147.968 158.607 148 157.599 148ZM157.623 137.536C158.439 137.536 158.847 136.992 158.847 135.904C158.847 135.36 158.735 134.96 158.511 134.704C158.303 134.432 158.063 134.296 157.791 134.296H157.023V137.536H157.623ZM157.023 144.424H157.623C158.439 144.424 158.847 143.88 158.847 142.792C158.847 142.248 158.735 141.848 158.511 141.592C158.303 141.32 158.063 141.184 157.791 141.184H157.023V144.424ZM169.265 148C168.465 148 167.929 147.96 167.657 147.88C167.385 147.784 167.249 147.632 167.249 147.424V132.496C167.249 132.144 167.713 131.8 168.641 131.464C169.569 131.112 170.609 130.936 171.761 130.936C172.785 130.936 173.457 131.152 173.777 131.584C173.889 131.744 173.945 131.904 173.945 132.064V142.696C175.897 142.568 177.369 142.504 178.361 142.504C178.697 142.504 178.865 143.04 178.865 144.112C178.865 145.168 178.793 146.08 178.649 146.848C178.505 147.616 178.313 148 178.073 148H169.265ZM192.472 148H182.296C181.512 148 180.984 147.944 180.712 147.832C180.44 147.72 180.304 147.544 180.304 147.304V132.112C180.304 131.696 180.488 131.4 180.856 131.224C181.24 131.048 181.92 130.96 182.896 130.96H192.544C192.88 130.96 193.048 131.52 193.048 132.64C193.048 133.744 192.976 134.592 192.832 135.184C192.688 135.76 192.496 136.048 192.256 136.048C191.216 136.048 189.464 135.944 187 135.736V137.344C189.368 137.248 190.912 137.2 191.632 137.2C192.064 137.2 192.28 137.704 192.28 138.712C192.28 139.72 192.192 140.488 192.016 141.016C191.856 141.528 191.632 141.784 191.344 141.784L187 141.688V143.224C189.784 143.016 191.704 142.912 192.76 142.912C193.096 142.912 193.264 143.472 193.264 144.592C193.264 145.712 193.192 146.56 193.048 147.136C192.904 147.712 192.712 148 192.472 148Z" fill="#CCDDE2"/>
</svg>
