<svg width="22" height="18" viewBox="0 0 22 18" fill="none" xmlns="http://www.w3.org/2000/svg">
<path d="M11 0C8.97496 0 7.33333 1.34315 7.33333 3C7.33333 4.65685 8.97496 6 11 6C7.96243 6 5.5 8.01472 5.5 10.5C5.5 11.4988 5.89773 12.4216 6.57068 13.1682C5.90016 12.4576 4.84875 12 3.66667 12C1.64162 12 0 13.3431 0 15C0 16.6569 1.64162 18 3.66667 18C5.69171 18 7.33333 16.6569 7.33333 15C7.33333 14.3389 7.07196 13.7277 6.62914 13.2319C7.63422 14.3067 9.21815 15 11 15C12.7818 15 14.3658 14.3067 15.3709 13.2319C14.928 13.7277 14.6667 14.3389 14.6667 15C14.6667 16.6569 16.3083 18 18.3333 18C20.3584 18 22 16.6569 22 15C22 13.3431 20.3584 12 18.3333 12C17.1513 12 16.0998 12.4576 15.4293 13.1682C16.1023 12.4216 16.5 11.4988 16.5 10.5C16.5 8.01472 14.0376 6 11 6C13.025 6 14.6667 4.65685 14.6667 3C14.6667 1.34315 13.025 0 11 0Z" fill="white"/>
</svg>
